<svg width="571" height="864" viewBox="0 0 571 864" fill="none" xmlns="http://www.w3.org/2000/svg">
<g filter="url(#filter0_ddddd_1156_749)">
<rect x="128" y="41" width="224" height="56" rx="28" fill="white"/>
<path d="M167.35 74.5V72.68H163.066V70.384H166.944V68.662H163.066V66.394H167.35V64.574H161.134V74.5H167.35ZM168.316 74.5H170.416C170.654 74.122 171.578 72.764 171.83 72.386L173.272 74.5H175.456L172.964 70.986L175.372 67.612H173.258L171.9 69.656C171.662 69.278 170.766 67.99 170.528 67.612H168.316L170.766 71.042L168.316 74.5ZM178.456 77.16V73.828C178.792 74.29 179.492 74.668 180.444 74.668C182.39 74.668 183.692 73.128 183.692 71.042C183.692 68.998 182.53 67.458 180.514 67.458C179.478 67.458 178.708 67.92 178.4 68.452V67.612H176.594V77.16H178.456ZM181.858 71.056C181.858 72.288 181.102 73.002 180.15 73.002C179.198 73.002 178.428 72.274 178.428 71.056C178.428 69.838 179.198 69.124 180.15 69.124C181.102 69.124 181.858 69.838 181.858 71.056ZM187.028 74.5V64.364H185.166V74.5H187.028ZM192.115 73.016C191.205 73.016 190.365 72.344 190.365 71.056C190.365 69.754 191.205 69.096 192.115 69.096C193.025 69.096 193.865 69.754 193.865 71.056C193.865 72.358 193.025 73.016 192.115 73.016ZM192.115 67.402C190.057 67.402 188.503 68.928 188.503 71.056C188.503 73.17 190.057 74.71 192.115 74.71C194.173 74.71 195.727 73.17 195.727 71.056C195.727 68.928 194.173 67.402 192.115 67.402ZM201.397 67.584C201.257 67.57 201.117 67.556 200.963 67.556C200.375 67.556 199.423 67.724 199.003 68.634V67.612H197.197V74.5H199.059V71.35C199.059 69.866 199.885 69.404 200.837 69.404C201.005 69.404 201.187 69.418 201.397 69.46V67.584ZM203.997 70.272C204.039 69.642 204.571 68.914 205.537 68.914C206.601 68.914 207.049 69.586 207.077 70.272H203.997ZM207.259 72.064C207.035 72.68 206.559 73.114 205.691 73.114C204.767 73.114 203.997 72.456 203.955 71.546H208.883C208.883 71.518 208.911 71.238 208.911 70.972C208.911 68.76 207.637 67.402 205.509 67.402C203.745 67.402 202.121 68.83 202.121 71.028C202.121 73.352 203.787 74.71 205.677 74.71C207.371 74.71 208.463 73.716 208.813 72.526L207.259 72.064ZM216.132 65.554H214.452V66.52C214.452 67.136 214.116 67.612 213.388 67.612H213.038V69.264H214.284V72.47C214.284 73.8 215.124 74.598 216.468 74.598C217.014 74.598 217.35 74.5 217.518 74.43V72.89C217.42 72.918 217.168 72.946 216.944 72.946C216.412 72.946 216.132 72.75 216.132 72.148V69.264H217.518V67.612H216.132V65.554ZM220.62 70.454C220.662 69.698 221.124 69.11 221.908 69.11C222.804 69.11 223.182 69.712 223.182 70.482V74.5H225.044V70.16C225.044 68.648 224.232 67.43 222.482 67.43C221.824 67.43 221.068 67.654 220.62 68.186V64.364H218.758V74.5H220.62V70.454ZM228.291 70.272C228.333 69.642 228.865 68.914 229.831 68.914C230.895 68.914 231.343 69.586 231.371 70.272H228.291ZM231.553 72.064C231.329 72.68 230.853 73.114 229.985 73.114C229.061 73.114 228.291 72.456 228.249 71.546H233.177C233.177 71.518 233.205 71.238 233.205 70.972C233.205 68.76 231.931 67.402 229.803 67.402C228.039 67.402 226.415 68.83 226.415 71.028C226.415 73.352 228.081 74.71 229.971 74.71C231.665 74.71 232.757 73.716 233.107 72.526L231.553 72.064ZM242.037 67.612L240.539 72.036L239.265 67.612H237.305L239.503 74.5H241.393L242.975 69.796L244.585 74.5H246.447L248.603 67.612H246.755L245.481 72.05L243.997 67.612H242.037ZM252.682 73.016C251.772 73.016 250.932 72.344 250.932 71.056C250.932 69.754 251.772 69.096 252.682 69.096C253.592 69.096 254.432 69.754 254.432 71.056C254.432 72.358 253.592 73.016 252.682 73.016ZM252.682 67.402C250.624 67.402 249.07 68.928 249.07 71.056C249.07 73.17 250.624 74.71 252.682 74.71C254.74 74.71 256.294 73.17 256.294 71.056C256.294 68.928 254.74 67.402 252.682 67.402ZM261.964 67.584C261.824 67.57 261.684 67.556 261.53 67.556C260.942 67.556 259.99 67.724 259.57 68.634V67.612H257.764V74.5H259.626V71.35C259.626 69.866 260.452 69.404 261.404 69.404C261.572 69.404 261.754 69.418 261.964 69.46V67.584ZM265.135 74.5V64.364H263.273V74.5H265.135ZM273.695 64.364H271.861V68.298C271.665 67.934 271.105 67.444 269.915 67.444C267.969 67.444 266.611 69.026 266.611 71.042C266.611 73.128 268.011 74.668 269.971 74.668C270.895 74.668 271.595 74.248 271.903 73.702C271.903 74.024 271.945 74.36 271.973 74.5H273.751C273.723 74.22 273.695 73.716 273.695 73.254V64.364ZM268.487 71.042C268.487 69.81 269.243 69.11 270.195 69.11C271.147 69.11 271.889 69.796 271.889 71.028C271.889 72.274 271.147 73.002 270.195 73.002C269.215 73.002 268.487 72.274 268.487 71.042ZM278.179 64.574H275.925L276.373 71.476H277.731L278.179 64.574ZM275.953 73.506C275.953 74.122 276.443 74.612 277.045 74.612C277.661 74.612 278.165 74.122 278.165 73.506C278.165 72.89 277.661 72.386 277.045 72.386C276.443 72.386 275.953 72.89 275.953 73.506Z" fill="#F85E9F"/>
<path fill-rule="evenodd" clip-rule="evenodd" d="M306.704 60.519C306.034 60.519 305.464 60.9848 305.304 61.6126H310.686C310.526 60.9848 309.956 60.519 309.286 60.519H306.704ZM312.207 61.6126H314.188C316.289 61.6126 318 63.3443 318 65.4708C318 65.4708 317.94 66.3711 317.92 67.6248C317.918 67.724 317.87 67.8212 317.791 67.88C317.31 68.2354 316.869 68.5291 316.829 68.5493C315.169 69.6632 313.239 70.447 311.183 70.8369C311.049 70.8632 310.917 70.7934 310.848 70.6739C310.272 69.6754 309.196 69.0253 307.995 69.0253C306.802 69.0253 305.716 69.6683 305.123 70.6678C305.054 70.7853 304.923 70.8531 304.79 70.8278C302.751 70.4369 300.821 69.6541 299.171 68.5594L298.21 67.8911C298.13 67.8405 298.08 67.7493 298.08 67.6481C298.05 67.1316 298 65.4708 298 65.4708C298 63.3443 299.711 61.6126 301.812 61.6126H303.783C303.973 60.1443 305.204 59 306.704 59H309.286C310.786 59 312.017 60.1443 312.207 61.6126ZM317.66 69.8152L317.62 69.8355C315.599 71.1924 313.168 72.0937 310.616 72.4684C310.256 72.519 309.896 72.2861 309.796 71.9216C309.576 71.0912 308.865 70.5443 308.015 70.5443H308.005H307.985C307.135 70.5443 306.424 71.0912 306.204 71.9216C306.104 72.2861 305.744 72.519 305.384 72.4684C302.832 72.0937 300.401 71.1924 298.38 69.8355C298.37 69.8254 298.27 69.7646 298.19 69.8152C298.1 69.8659 298.1 69.9874 298.1 69.9874L298.17 75.1519C298.17 77.2785 299.871 79 301.972 79H314.018C316.119 79 317.82 77.2785 317.82 75.1519L317.9 69.9874C317.9 69.9874 317.9 69.8659 317.81 69.8152C317.76 69.7849 317.7 69.795 317.66 69.8152ZM308.745 74.0583C308.745 74.4836 308.415 74.8177 307.995 74.8177C307.585 74.8177 307.245 74.4836 307.245 74.0583V72.7519C307.245 72.3367 307.585 71.9924 307.995 71.9924C308.415 71.9924 308.745 72.3367 308.745 72.7519V74.0583Z" fill="#F85E9F"/>
</g>
<defs>
<filter id="filter0_ddddd_1156_749" x="-91" y="0" width="662" height="864" filterUnits="userSpaceOnUse" color-interpolation-filters="sRGB">
<feFlood flood-opacity="0" result="BackgroundImageFix"/>
<feColorMatrix in="SourceAlpha" type="matrix" values="0 0 0 0 0 0 0 0 0 0 0 0 0 0 0 0 0 0 127 0" result="hardAlpha"/>
<feOffset/>
<feColorMatrix type="matrix" values="0 0 0 0 0 0 0 0 0 0 0 0 0 0 0 0 0 0 0.07 0"/>
<feBlend mode="normal" in2="BackgroundImageFix" result="effect1_dropShadow_1156_749"/>
<feColorMatrix in="SourceAlpha" type="matrix" values="0 0 0 0 0 0 0 0 0 0 0 0 0 0 0 0 0 0 127 0" result="hardAlpha"/>
<feOffset dy="34"/>
<feGaussianBlur stdDeviation="37.5"/>
<feColorMatrix type="matrix" values="0 0 0 0 0 0 0 0 0 0 0 0 0 0 0 0 0 0 0.07 0"/>
<feBlend mode="normal" in2="effect1_dropShadow_1156_749" result="effect2_dropShadow_1156_749"/>
<feColorMatrix in="SourceAlpha" type="matrix" values="0 0 0 0 0 0 0 0 0 0 0 0 0 0 0 0 0 0 127 0" result="hardAlpha"/>
<feOffset dy="137"/>
<feGaussianBlur stdDeviation="68.5"/>
<feColorMatrix type="matrix" values="0 0 0 0 0 0 0 0 0 0 0 0 0 0 0 0 0 0 0.06 0"/>
<feBlend mode="normal" in2="effect2_dropShadow_1156_749" result="effect3_dropShadow_1156_749"/>
<feColorMatrix in="SourceAlpha" type="matrix" values="0 0 0 0 0 0 0 0 0 0 0 0 0 0 0 0 0 0 127 0" result="hardAlpha"/>
<feOffset dy="308"/>
<feGaussianBlur stdDeviation="92.5"/>
<feColorMatrix type="matrix" values="0 0 0 0 0 0 0 0 0 0 0 0 0 0 0 0 0 0 0.04 0"/>
<feBlend mode="normal" in2="effect3_dropShadow_1156_749" result="effect4_dropShadow_1156_749"/>
<feColorMatrix in="SourceAlpha" type="matrix" values="0 0 0 0 0 0 0 0 0 0 0 0 0 0 0 0 0 0 127 0" result="hardAlpha"/>
<feOffset dy="548"/>
<feGaussianBlur stdDeviation="109.5"/>
<feColorMatrix type="matrix" values="0 0 0 0 0 0 0 0 0 0 0 0 0 0 0 0 0 0 0.01 0"/>
<feBlend mode="normal" in2="effect4_dropShadow_1156_749" result="effect5_dropShadow_1156_749"/>
<feBlend mode="normal" in="SourceGraphic" in2="effect5_dropShadow_1156_749" result="shape"/>
</filter>
</defs>
</svg>
