<svg width="160" height="32" viewBox="0 0 160 32" fill="none" xmlns="http://www.w3.org/2000/svg">
<path d="M16 0C7.1808 0 0 7.1808 0 16C0 24.8192 7.1808 32 16 32C24.8192 32 32 24.8256 32 16C32 7.1744 24.8256 0 16 0ZM20.4352 9.4912C20.4352 9.6256 20.3264 9.7344 20.192 9.7344H18.2656C17.792 9.7344 17.408 10.1184 17.408 10.592V12.608H20.1472C20.1536 12.608 20.16 12.608 20.1664 12.608C20.3008 12.6208 20.3968 12.736 20.384 12.8704L20.1408 15.712C20.128 15.84 20.0256 15.936 19.8976 15.936H17.4016V25.3632C17.4016 25.4976 17.2928 25.6064 17.1584 25.6064H13.7152C13.5808 25.6064 13.472 25.4976 13.472 25.3632V16.0768V15.9232H11.7504C11.616 15.9232 11.5072 15.8144 11.5072 15.68V12.8384C11.5072 12.704 11.616 12.5952 11.7504 12.5952H13.472V9.856C13.472 7.9488 15.0208 6.4 16.928 6.4H20.1792C20.3136 6.4 20.4224 6.5088 20.4224 6.6432V9.4912H20.4352Z" fill="#5D50C6"/>
<path d="M80 32C88.8366 32 96 24.8366 96 16C96 7.16344 88.8366 0 80 0C71.1634 0 64 7.16344 64 16C64 24.8366 71.1634 32 80 32Z" fill="#5D50C6"/>
<path d="M89.8006 11.4985C89.115 11.8026 88.3774 12.0082 87.6039 12.1C88.3937 11.6269 88.9998 10.8782 89.2858 9.98459C88.5468 10.423 87.728 10.741 86.8572 10.9124C86.1596 10.1694 85.1656 9.70508 84.065 9.70508C81.9532 9.70508 80.2405 11.4178 80.2405 13.5295C80.2405 13.8293 80.2745 14.1211 80.3401 14.4011C77.1616 14.2417 74.3434 12.7192 72.457 10.4047C72.1279 10.9694 71.939 11.6269 71.939 12.3276C71.939 13.6542 72.6147 14.8253 73.6403 15.5109C73.0137 15.4912 72.4236 15.3193 71.9082 15.032C71.908 15.0483 71.908 15.0646 71.908 15.0805C71.908 16.9336 73.2268 18.4792 74.976 18.8303C74.6554 18.9181 74.3169 18.9646 73.9686 18.9646C73.7216 18.9646 73.4823 18.9409 73.249 18.8964C73.7356 20.4155 75.1477 21.5213 76.8216 21.5523C75.5125 22.5783 73.8637 23.1895 72.0714 23.1895C71.7633 23.1895 71.4582 23.1715 71.1595 23.1359C72.8512 24.2214 74.8619 24.8543 77.0216 24.8543C84.0561 24.8543 87.9031 19.0268 87.9031 13.9725C87.9031 13.8068 87.8994 13.6416 87.892 13.4779C88.6398 12.9388 89.2881 12.2655 89.8006 11.4985Z" fill="#F1F2F2"/>
<path d="M144 32C152.837 32 160 24.8366 160 16C160 7.16344 152.837 0 144 0C135.163 0 128 7.16344 128 16C128 24.8366 135.163 32 144 32Z" fill="#5D50C6"/>
<path d="M148.8 8.19922H139.2C137.533 8.19922 136.2 9.53255 136.2 11.1992V20.7992C136.2 22.4659 137.533 23.7992 139.2 23.7992H148.8C150.467 23.7992 151.8 22.4659 151.8 20.7992V11.1992C151.8 9.53255 150.467 8.19922 148.8 8.19922ZM149.667 9.99922H150V12.6659H147.333V9.99922H149.667ZM141.8 14.3992C142.267 13.7326 143.133 13.2659 144 13.2659C144.867 13.2659 145.733 13.7326 146.2 14.3992C146.533 14.8659 146.733 15.3992 146.733 15.9992C146.733 17.5325 145.467 18.7326 144 18.7326C142.533 18.7326 141.267 17.5326 141.267 15.9992C141.267 15.3992 141.467 14.8659 141.8 14.3992ZM150.267 20.7992C150.267 21.5992 149.6 22.2659 148.8 22.2659H139.2C138.4 22.2659 137.733 21.5992 137.733 20.7992V14.3992H140.067C139.867 14.8659 139.733 15.4659 139.733 15.9992C139.733 18.3326 141.667 20.2659 144 20.2659C146.333 20.2659 148.267 18.3326 148.267 15.9992C148.267 15.4659 148.133 14.8659 147.933 14.3992H150.267L150.267 20.7992Z" fill="white"/>
</svg>
